<svg width="282" height="40" viewBox="0 0 282 40" fill="none" xmlns="http://www.w3.org/2000/svg">
<rect x="0.5" y="0.5" width="134" height="39" rx="4.5" fill="white"/>
<rect x="0.5" y="0.5" width="134" height="39" rx="4.5" stroke="white"/>
<path d="M68.136 21.7511C65.784 21.7511 63.867 23.5401 63.867 26.0041C63.867 28.4531 65.784 30.2571 68.136 30.2571C70.489 30.2571 72.406 28.4531 72.406 26.0041C72.405 23.5401 70.488 21.7511 68.136 21.7511ZM68.136 28.5831C66.847 28.5831 65.736 27.5201 65.736 26.0051C65.736 24.4741 66.848 23.4271 68.136 23.4271C69.425 23.4271 70.536 24.4741 70.536 26.0051C70.536 27.5191 69.425 28.5831 68.136 28.5831ZM58.822 21.7511C56.47 21.7511 54.553 23.5401 54.553 26.0041C54.553 28.4531 56.47 30.2571 58.822 30.2571C61.175 30.2571 63.092 28.4531 63.092 26.0041C63.092 23.5401 61.175 21.7511 58.822 21.7511ZM58.822 28.5831C57.533 28.5831 56.422 27.5201 56.422 26.0051C56.422 24.4741 57.534 23.4271 58.822 23.4271C60.111 23.4271 61.222 24.4741 61.222 26.0051C61.223 27.5191 60.111 28.5831 58.822 28.5831ZM47.744 23.0571V24.8611H52.062C51.933 25.8761 51.595 26.6171 51.079 27.1321C50.451 27.7601 49.468 28.4531 47.744 28.4531C45.086 28.4531 43.008 26.3101 43.008 23.6521C43.008 20.9941 45.086 18.8511 47.744 18.8511C49.178 18.8511 50.225 19.4151 50.998 20.1401L52.271 18.8671C51.191 17.8361 49.758 17.0471 47.744 17.0471C44.103 17.0471 41.042 20.0111 41.042 23.6521C41.042 27.2931 44.103 30.2571 47.744 30.2571C49.709 30.2571 51.192 29.6121 52.351 28.4041C53.543 27.2121 53.914 25.5361 53.914 24.1831C53.914 23.7651 53.882 23.3781 53.817 23.0561H47.744V23.0571ZM93.052 24.4581C92.698 23.5081 91.618 21.7511 89.411 21.7511C87.22 21.7511 85.399 23.4751 85.399 26.0041C85.399 28.3881 87.204 30.2571 89.62 30.2571C91.569 30.2571 92.697 29.0651 93.165 28.3721L91.715 27.4051C91.232 28.1141 90.571 28.5811 89.62 28.5811C88.67 28.5811 87.993 28.1461 87.558 27.2921L93.245 24.9401L93.052 24.4581ZM87.252 25.8761C87.204 24.2321 88.525 23.3951 89.476 23.3951C90.217 23.3951 90.845 23.7661 91.055 24.2971L87.252 25.8761ZM82.629 30.0001H84.497V17.4991H82.629V30.0001ZM79.567 22.7021H79.503C79.084 22.2021 78.278 21.7511 77.264 21.7511C75.137 21.7511 73.188 23.6201 73.188 26.0211C73.188 28.4051 75.137 30.2581 77.264 30.2581C78.279 30.2581 79.084 29.8071 79.503 29.2921H79.567V29.9041C79.567 31.5311 78.697 32.4011 77.296 32.4011C76.152 32.4011 75.443 31.5801 75.153 30.8871L73.526 31.5641C73.993 32.6911 75.233 34.0771 77.296 34.0771C79.487 34.0771 81.34 32.7881 81.34 29.6461V22.0101H79.568V22.7021H79.567ZM77.425 28.5831C76.136 28.5831 75.057 27.5031 75.057 26.0211C75.057 24.5221 76.136 23.4271 77.425 23.4271C78.697 23.4271 79.696 24.5221 79.696 26.0211C79.696 27.5031 78.697 28.5831 77.425 28.5831ZM101.806 17.4991H97.335V30.0001H99.2V25.2641H101.805C103.873 25.2641 105.907 23.7671 105.907 21.3821C105.907 18.9971 103.874 17.4991 101.806 17.4991ZM101.854 23.5241H99.2V19.2391H101.854C103.249 19.2391 104.041 20.3941 104.041 21.3821C104.041 22.3501 103.249 23.5241 101.854 23.5241ZM113.386 21.7291C112.035 21.7291 110.636 22.3241 110.057 23.6431L111.713 24.3341C112.067 23.6431 112.727 23.4171 113.418 23.4171C114.383 23.4171 115.364 23.9961 115.38 25.0251V25.1541C115.042 24.9611 114.318 24.6721 113.434 24.6721C111.649 24.6721 109.831 25.6531 109.831 27.4861C109.831 29.1591 111.295 30.2361 112.935 30.2361C114.189 30.2361 114.881 29.6731 115.315 29.0131H115.379V29.9781H117.181V25.1851C117.182 22.9671 115.524 21.7291 113.386 21.7291ZM113.16 28.5801C112.55 28.5801 111.697 28.2741 111.697 27.5181C111.697 26.5531 112.759 26.1831 113.676 26.1831C114.495 26.1831 114.882 26.3601 115.38 26.6011C115.235 27.7601 114.238 28.5801 113.16 28.5801ZM123.743 22.0021L121.604 27.4221H121.54L119.32 22.0021H117.31L120.639 29.5771L118.741 33.7911H120.687L125.818 22.0021H123.743ZM106.937 30.0001H108.802V17.4991H106.937V30.0001Z" fill="#0D0D0D"/>
<path d="M47.418 10.2429C47.418 11.0809 47.17 11.7479 46.673 12.2459C46.109 12.8379 45.3731 13.1339 44.4691 13.1339C43.6031 13.1339 42.8661 12.8339 42.2611 12.2339C41.6551 11.6329 41.3521 10.8889 41.3521 10.0009C41.3521 9.11194 41.6551 8.36794 42.2611 7.76794C42.8661 7.16694 43.6031 6.86694 44.4691 6.86694C44.8991 6.86694 45.3101 6.95094 45.7001 7.11794C46.0911 7.28594 46.4041 7.50894 46.6381 7.78794L46.111 8.31594C45.714 7.84094 45.167 7.60394 44.468 7.60394C43.836 7.60394 43.29 7.82594 42.829 8.26994C42.368 8.71394 42.1381 9.29094 42.1381 9.99994C42.1381 10.7089 42.368 11.2859 42.829 11.7299C43.29 12.1739 43.836 12.3959 44.468 12.3959C45.138 12.3959 45.6971 12.1729 46.1441 11.7259C46.4341 11.4349 46.602 11.0299 46.647 10.5109H44.468V9.78994H47.375C47.405 9.94694 47.418 10.0979 47.418 10.2429Z" fill="#0D0D0D"/>
<path d="M52.0281 7.737H49.2961V9.639H51.7601V10.36H49.2961V12.262H52.0281V13H48.5251V7H52.0281V7.737Z" fill="#0D0D0D"/>
<path d="M55.279 13H54.508V7.737H52.832V7H56.955V7.737H55.279V13Z" fill="#0D0D0D"/>
<path d="M59.938 13V7H60.709V13H59.938Z" fill="#0D0D0D"/>
<path d="M64.1281 13H63.3572V7.737H61.6812V7H65.8042V7.737H64.1281V13Z" fill="#0D0D0D"/>
<path d="M73.6089 12.225C73.0189 12.831 72.2859 13.134 71.4089 13.134C70.5319 13.134 69.7989 12.831 69.2099 12.225C68.6199 11.619 68.3259 10.877 68.3259 9.99999C68.3259 9.12299 68.6199 8.38099 69.2099 7.77499C69.7989 7.16899 70.5319 6.86499 71.4089 6.86499C72.2809 6.86499 73.0129 7.16999 73.6049 7.77899C74.1969 8.38799 74.4929 9.12799 74.4929 9.99999C74.4929 10.877 74.1979 11.619 73.6089 12.225ZM69.7789 11.722C70.2229 12.172 70.7659 12.396 71.4089 12.396C72.0519 12.396 72.5959 12.171 73.0389 11.722C73.4829 11.272 73.7059 10.698 73.7059 9.99999C73.7059 9.30199 73.4829 8.72799 73.0389 8.27799C72.5959 7.82799 72.0519 7.60399 71.4089 7.60399C70.7659 7.60399 70.2229 7.82899 69.7789 8.27799C69.3359 8.72799 69.1129 9.30199 69.1129 9.99999C69.1129 10.698 69.3359 11.272 69.7789 11.722Z" fill="#0D0D0D"/>
<path d="M75.5749 13V7H76.513L79.429 11.667H79.4619L79.429 10.511V7H80.1999V13H79.3949L76.344 8.106H76.3109L76.344 9.262V13H75.5749Z" fill="#0D0D0D"/>
<path d="M47.418 10.2429C47.418 11.0809 47.17 11.7479 46.673 12.2459C46.109 12.8379 45.3731 13.1339 44.4691 13.1339C43.6031 13.1339 42.8661 12.8339 42.2611 12.2339C41.6551 11.6329 41.3521 10.8889 41.3521 10.0009C41.3521 9.11194 41.6551 8.36794 42.2611 7.76794C42.8661 7.16694 43.6031 6.86694 44.4691 6.86694C44.8991 6.86694 45.3101 6.95094 45.7001 7.11794C46.0911 7.28594 46.4041 7.50894 46.6381 7.78794L46.111 8.31594C45.714 7.84094 45.167 7.60394 44.468 7.60394C43.836 7.60394 43.29 7.82594 42.829 8.26994C42.368 8.71394 42.1381 9.29094 42.1381 9.99994C42.1381 10.7089 42.368 11.2859 42.829 11.7299C43.29 12.1739 43.836 12.3959 44.468 12.3959C45.138 12.3959 45.6971 12.1729 46.1441 11.7259C46.4341 11.4349 46.602 11.0299 46.647 10.5109H44.468V9.78994H47.375C47.405 9.94694 47.418 10.0979 47.418 10.2429Z" stroke="#0D0D0D" stroke-width="0.2" stroke-miterlimit="10"/>
<path d="M52.0281 7.737H49.2961V9.639H51.7601V10.36H49.2961V12.262H52.0281V13H48.5251V7H52.0281V7.737Z" stroke="#0D0D0D" stroke-width="0.2" stroke-miterlimit="10"/>
<path d="M55.279 13H54.508V7.737H52.832V7H56.955V7.737H55.279V13Z" stroke="#0D0D0D" stroke-width="0.2" stroke-miterlimit="10"/>
<path d="M59.938 13V7H60.709V13H59.938Z" stroke="#0D0D0D" stroke-width="0.2" stroke-miterlimit="10"/>
<path d="M64.1281 13H63.3572V7.737H61.6812V7H65.8042V7.737H64.1281V13Z" stroke="#0D0D0D" stroke-width="0.2" stroke-miterlimit="10"/>
<path d="M73.6089 12.225C73.0189 12.831 72.2859 13.134 71.4089 13.134C70.5319 13.134 69.7989 12.831 69.2099 12.225C68.6199 11.619 68.3259 10.877 68.3259 9.99999C68.3259 9.12299 68.6199 8.38099 69.2099 7.77499C69.7989 7.16899 70.5319 6.86499 71.4089 6.86499C72.2809 6.86499 73.0129 7.16999 73.6049 7.77899C74.1969 8.38799 74.4929 9.12799 74.4929 9.99999C74.4929 10.877 74.1979 11.619 73.6089 12.225ZM69.7789 11.722C70.2229 12.172 70.7659 12.396 71.4089 12.396C72.0519 12.396 72.5959 12.171 73.0389 11.722C73.4829 11.272 73.7059 10.698 73.7059 9.99999C73.7059 9.30199 73.4829 8.72799 73.0389 8.27799C72.5959 7.82799 72.0519 7.60399 71.4089 7.60399C70.7659 7.60399 70.2229 7.82899 69.7789 8.27799C69.3359 8.72799 69.1129 9.30199 69.1129 9.99999C69.1129 10.698 69.3359 11.272 69.7789 11.722Z" stroke="#0D0D0D" stroke-width="0.2" stroke-miterlimit="10"/>
<path d="M75.5749 13V7H76.513L79.429 11.667H79.4619L79.429 10.511V7H80.1999V13H79.3949L76.344 8.106H76.3109L76.344 9.262V13H75.5749Z" stroke="#0D0D0D" stroke-width="0.2" stroke-miterlimit="10"/>
<g filter="url(#filter0_ii_102_378)">
<path d="M10.436 7.53784C10.145 7.84584 9.97302 8.32384 9.97302 8.94284V31.0588C9.97302 31.6788 10.145 32.1558 10.436 32.4638L10.51 32.5358L22.899 20.1468V20.0008V19.8548L10.51 7.46484L10.436 7.53784Z" fill="url(#paint0_linear_102_378)"/>
<path d="M27.028 24.2779L22.899 20.1469V20.0009V19.8549L27.029 15.7249L27.122 15.7779L32.015 18.5579C33.412 19.3519 33.412 20.6509 32.015 21.4459L27.122 24.2259L27.028 24.2779Z" fill="url(#paint1_linear_102_378)"/>
<g filter="url(#filter1_i_102_378)">
<path d="M27.122 24.225L22.898 20.001L10.436 32.464C10.896 32.952 11.657 33.012 12.514 32.526L27.122 24.225Z" fill="url(#paint2_linear_102_378)"/>
</g>
<path d="M27.122 15.7769L12.514 7.47694C11.657 6.98994 10.896 7.05094 10.436 7.53894L22.899 20.0019L27.122 15.7769Z" fill="url(#paint3_linear_102_378)"/>
</g>
<rect x="162.5" y="0.5" width="119" height="39" rx="6.5" fill="white"/>
<rect x="162.5" y="0.5" width="119" height="39" rx="6.5" stroke="white"/>
<path d="M243.526 19.2009V21.4919H242.09V22.9943H243.526V28.0993C243.526 29.8425 244.315 30.5397 246.298 30.5397C246.647 30.5397 246.979 30.4982 247.27 30.4484V28.9626C247.021 28.9875 246.863 29.0041 246.589 29.0041C245.701 29.0041 245.311 28.589 245.311 27.6428V22.9943H247.27V21.4919H245.311V19.2009H243.526Z" fill="#0D0D0D"/>
<path d="M252.323 30.6642C254.963 30.6642 256.582 28.8962 256.582 25.966C256.582 23.0524 254.955 21.2761 252.323 21.2761C249.684 21.2761 248.057 23.0524 248.057 25.966C248.057 28.8962 249.675 30.6642 252.323 30.6642ZM252.323 29.0788C250.771 29.0788 249.9 27.9416 249.9 25.966C249.9 24.007 250.771 22.8615 252.323 22.8615C253.867 22.8615 254.747 24.007 254.747 25.966C254.747 27.9333 253.867 29.0788 252.323 29.0788Z" fill="#0D0D0D"/>
<path d="M257.967 30.4899H259.751V25.1525C259.751 23.8825 260.706 23.0275 262.059 23.0275C262.374 23.0275 262.906 23.0856 263.055 23.1354V21.3757C262.864 21.3259 262.524 21.301 262.258 21.301C261.079 21.301 260.075 21.9484 259.818 22.8366H259.685V21.4504H257.967V30.4899Z" fill="#0D0D0D"/>
<path d="M267.486 22.7951C268.806 22.7951 269.669 23.7165 269.711 25.1359H265.145C265.245 23.7248 266.166 22.7951 267.486 22.7951ZM269.703 28.0495C269.371 28.7551 268.632 29.1452 267.553 29.1452C266.125 29.1452 265.204 28.1408 265.145 26.5554V26.4557H271.529V25.8332C271.529 22.9943 270.01 21.2761 267.495 21.2761C264.946 21.2761 263.328 23.1105 263.328 25.9992C263.328 28.8879 264.913 30.6642 267.503 30.6642C269.57 30.6642 271.014 29.6681 271.421 28.0495H269.703Z" fill="#0D0D0D"/>
<path d="M231.822 27.1518C231.96 29.3715 233.81 30.791 236.563 30.791C239.505 30.791 241.346 29.3026 241.346 26.9281C241.346 25.0611 240.297 24.0287 237.75 23.435L236.382 23.0995C234.765 22.7209 234.111 22.2133 234.111 21.3272C234.111 20.2087 235.126 19.4774 236.649 19.4774C238.094 19.4774 239.092 20.1915 239.273 21.3358H241.149C241.037 19.2451 239.196 17.7739 236.675 17.7739C233.965 17.7739 232.158 19.2451 232.158 21.4562C232.158 23.2802 233.182 24.3642 235.427 24.889L237.027 25.2762C238.671 25.6634 239.393 26.2312 239.393 27.1776C239.393 28.2788 238.258 29.0789 236.709 29.0789C235.049 29.0789 233.896 28.3304 233.732 27.1518H231.822Z" fill="#0D0D0D"/>
<path d="M213.335 21.301C212.106 21.301 211.044 21.9152 210.496 22.9445H210.363V21.4504H208.645V33.4948H210.43V29.1203H210.571C211.044 30.0749 212.065 30.6393 213.352 30.6393C215.634 30.6393 217.087 28.8381 217.087 25.966C217.087 23.0939 215.634 21.301 213.335 21.301ZM212.829 29.0373C211.335 29.0373 210.397 27.8586 210.397 25.9743C210.397 24.0817 211.335 22.903 212.837 22.903C214.348 22.903 215.252 24.0568 215.252 25.966C215.252 27.8835 214.348 29.0373 212.829 29.0373Z" fill="#0D0D0D"/>
<path d="M223.332 21.301C222.103 21.301 221.041 21.9152 220.493 22.9445H220.36V21.4504H218.642V33.4948H220.427V29.1203H220.568C221.041 30.0749 222.062 30.6393 223.348 30.6393C225.631 30.6393 227.084 28.8381 227.084 25.966C227.084 23.0939 225.631 21.301 223.332 21.301ZM222.825 29.0373C221.331 29.0373 220.393 27.8586 220.393 25.9743C220.393 24.0817 221.331 22.903 222.834 22.903C224.345 22.903 225.249 24.0568 225.249 25.966C225.249 27.8835 224.345 29.0373 222.825 29.0373Z" fill="#0D0D0D"/>
<path d="M205.443 30.4899H207.491L203.008 18.075H200.935L196.452 30.4899H198.431L199.575 27.1948H204.307L205.443 30.4899ZM201.873 20.3292H202.019L203.817 25.5773H200.066L201.873 20.3292Z" fill="#0D0D0D"/>
<path d="M197.651 8.71094V14.7H199.813C201.598 14.7 202.632 13.6001 202.632 11.6868C202.632 9.80249 201.59 8.71094 199.813 8.71094H197.651ZM198.581 9.55762H199.71C200.951 9.55762 201.685 10.3462 201.685 11.6992C201.685 13.073 200.963 13.8533 199.71 13.8533H198.581V9.55762Z" fill="#0D0D0D"/>
<path d="M205.797 14.7871C207.117 14.7871 207.926 13.9031 207.926 12.438C207.926 10.9812 207.112 10.093 205.797 10.093C204.477 10.093 203.663 10.9812 203.663 12.438C203.663 13.9031 204.473 14.7871 205.797 14.7871ZM205.797 13.9944C205.021 13.9944 204.585 13.4258 204.585 12.438C204.585 11.4585 205.021 10.8857 205.797 10.8857C206.569 10.8857 207.009 11.4585 207.009 12.438C207.009 13.4216 206.569 13.9944 205.797 13.9944Z" fill="#0D0D0D"/>
<path d="M214.818 10.1802H213.926L213.12 13.6292H213.05L212.12 10.1802H211.265L210.336 13.6292H210.269L209.46 10.1802H208.555L209.8 14.7H210.717L211.647 11.3713H211.718L212.651 14.7H213.577L214.818 10.1802Z" fill="#0D0D0D"/>
<path d="M215.846 14.7H216.738V12.0562C216.738 11.3506 217.157 10.9106 217.817 10.9106C218.477 10.9106 218.792 11.2717 218.792 11.998V14.7H219.685V11.7739C219.685 10.699 219.129 10.093 218.12 10.093C217.439 10.093 216.991 10.396 216.771 10.8982H216.705V10.1802H215.846V14.7Z" fill="#0D0D0D"/>
<path d="M221.09 14.7H221.982V8.41626H221.09V14.7Z" fill="#0D0D0D"/>
<path d="M225.338 14.7871C226.658 14.7871 227.468 13.9031 227.468 12.438C227.468 10.9812 226.654 10.093 225.338 10.093C224.019 10.093 223.205 10.9812 223.205 12.438C223.205 13.9031 224.014 14.7871 225.338 14.7871ZM225.338 13.9944C224.562 13.9944 224.126 13.4258 224.126 12.438C224.126 11.4585 224.562 10.8857 225.338 10.8857C226.11 10.8857 226.55 11.4585 226.55 12.438C226.55 13.4216 226.11 13.9944 225.338 13.9944Z" fill="#0D0D0D"/>
<path d="M230.126 14.0234C229.641 14.0234 229.288 13.7869 229.288 13.3801C229.288 12.9817 229.57 12.77 230.193 12.7285L231.297 12.658V13.0356C231.297 13.5959 230.799 14.0234 230.126 14.0234ZM229.898 14.7747C230.492 14.7747 230.985 14.5173 231.255 14.0649H231.326V14.7H232.185V11.6121C232.185 10.6575 231.546 10.093 230.413 10.093C229.387 10.093 228.657 10.5911 228.566 11.3672H229.429C229.529 11.0476 229.873 10.865 230.371 10.865C230.981 10.865 231.297 11.1348 231.297 11.6121V12.0022L230.072 12.0728C228.997 12.1392 228.391 12.6082 228.391 13.4216C228.391 14.2476 229.026 14.7747 229.898 14.7747Z" fill="#0D0D0D"/>
<path d="M235.213 14.7747C235.836 14.7747 236.363 14.48 236.632 13.9861H236.703V14.7H237.558V8.41626H236.666V10.8982H236.599C236.354 10.4001 235.831 10.1055 235.213 10.1055C234.072 10.1055 233.337 11.0103 233.337 12.438C233.337 13.8699 234.063 14.7747 235.213 14.7747ZM235.466 10.9065C236.213 10.9065 236.682 11.5 236.682 12.4421C236.682 13.3884 236.217 13.9736 235.466 13.9736C234.711 13.9736 234.258 13.3967 234.258 12.438C234.258 11.4875 234.715 10.9065 235.466 10.9065Z" fill="#0D0D0D"/>
<path d="M243.344 14.7871C244.664 14.7871 245.474 13.9031 245.474 12.438C245.474 10.9812 244.66 10.093 243.344 10.093C242.025 10.093 241.211 10.9812 241.211 12.438C241.211 13.9031 242.02 14.7871 243.344 14.7871ZM243.344 13.9944C242.568 13.9944 242.133 13.4258 242.133 12.438C242.133 11.4585 242.568 10.8857 243.344 10.8857C244.116 10.8857 244.556 11.4585 244.556 12.438C244.556 13.4216 244.116 13.9944 243.344 13.9944Z" fill="#0D0D0D"/>
<path d="M246.655 14.7H247.547V12.0562C247.547 11.3506 247.966 10.9106 248.626 10.9106C249.286 10.9106 249.602 11.2717 249.602 11.998V14.7H250.494V11.7739C250.494 10.699 249.938 10.093 248.929 10.093C248.249 10.093 247.8 10.396 247.58 10.8982H247.514V10.1802H246.655V14.7Z" fill="#0D0D0D"/>
<path d="M254.604 9.05542V10.2009H253.886V10.9521H254.604V13.5046C254.604 14.3762 254.998 14.7249 255.99 14.7249C256.164 14.7249 256.33 14.7041 256.475 14.6792V13.9363C256.351 13.9487 256.272 13.957 256.135 13.957C255.691 13.957 255.496 13.7495 255.496 13.2764V10.9521H256.475V10.2009H255.496V9.05542H254.604Z" fill="#0D0D0D"/>
<path d="M257.673 14.7H258.566V12.0603C258.566 11.3755 258.972 10.9148 259.703 10.9148C260.334 10.9148 260.67 11.28 260.67 12.0022V14.7H261.562V11.7822C261.562 10.7073 260.969 10.0972 260.006 10.0972C259.325 10.0972 258.848 10.4001 258.628 10.9065H258.557V8.41626H257.673V14.7Z" fill="#0D0D0D"/>
<path d="M264.781 10.8525C265.441 10.8525 265.873 11.3132 265.894 12.0229H263.611C263.661 11.3174 264.121 10.8525 264.781 10.8525ZM265.889 13.4797C265.723 13.8325 265.354 14.0276 264.814 14.0276C264.101 14.0276 263.64 13.5254 263.611 12.7327V12.6829H266.802V12.3716C266.802 10.9521 266.043 10.093 264.785 10.093C263.511 10.093 262.702 11.0103 262.702 12.4546C262.702 13.8989 263.495 14.7871 264.789 14.7871C265.823 14.7871 266.545 14.2891 266.748 13.4797H265.889Z" fill="#0D0D0D"/>
<path d="M186.769 20.3008C186.791 18.6198 187.693 17.0292 189.126 16.1488C188.222 14.8584 186.709 14.0403 185.134 13.9911C183.455 13.8148 181.827 14.9959 180.971 14.9959C180.099 14.9959 178.782 14.0086 177.363 14.0378C175.514 14.0975 173.79 15.1489 172.89 16.7656C170.956 20.1141 172.399 25.0351 174.251 27.7417C175.178 29.0671 176.261 30.5475 177.679 30.495C179.066 30.4375 179.584 29.6105 181.258 29.6105C182.917 29.6105 183.403 30.495 184.849 30.4616C186.338 30.4375 187.275 29.1304 188.17 27.7925C188.836 26.8481 189.348 25.8044 189.688 24.7C187.939 23.9602 186.771 22.2 186.769 20.3008Z" fill="#0D0D0D"/>
<path d="M184.037 12.2111C184.849 11.2369 185.249 9.98469 185.152 8.72046C183.912 8.85068 182.767 9.44324 181.944 10.3801C181.14 11.2954 180.721 12.5255 180.801 13.7415C182.041 13.7542 183.26 13.1777 184.037 12.2111Z" fill="#0D0D0D"/>
<defs>
<filter id="filter0_ii_102_378" x="9.97302" y="7.14087" width="23.0898" height="25.7207" filterUnits="userSpaceOnUse" color-interpolation-filters="sRGB">
<feFlood flood-opacity="0" result="BackgroundImageFix"/>
<feBlend mode="normal" in="SourceGraphic" in2="BackgroundImageFix" result="shape"/>
<feColorMatrix in="SourceAlpha" type="matrix" values="0 0 0 0 0 0 0 0 0 0 0 0 0 0 0 0 0 0 127 0" result="hardAlpha"/>
<feOffset dy="-0.15"/>
<feComposite in2="hardAlpha" operator="arithmetic" k2="-1" k3="1"/>
<feColorMatrix type="matrix" values="0 0 0 0 0 0 0 0 0 0 0 0 0 0 0 0 0 0 0.12 0"/>
<feBlend mode="normal" in2="shape" result="effect1_innerShadow_102_378"/>
<feColorMatrix in="SourceAlpha" type="matrix" values="0 0 0 0 0 0 0 0 0 0 0 0 0 0 0 0 0 0 127 0" result="hardAlpha"/>
<feOffset dy="0.15"/>
<feComposite in2="hardAlpha" operator="arithmetic" k2="-1" k3="1"/>
<feColorMatrix type="matrix" values="0 0 0 0 1 0 0 0 0 1 0 0 0 0 1 0 0 0 0.25 0"/>
<feBlend mode="normal" in2="effect1_innerShadow_102_378" result="effect2_innerShadow_102_378"/>
</filter>
<filter id="filter1_i_102_378" x="10.436" y="20.001" width="16.686" height="12.8606" filterUnits="userSpaceOnUse" color-interpolation-filters="sRGB">
<feFlood flood-opacity="0" result="BackgroundImageFix"/>
<feBlend mode="normal" in="SourceGraphic" in2="BackgroundImageFix" result="shape"/>
<feColorMatrix in="SourceAlpha" type="matrix" values="0 0 0 0 0 0 0 0 0 0 0 0 0 0 0 0 0 0 127 0" result="hardAlpha"/>
<feOffset dy="-0.15"/>
<feComposite in2="hardAlpha" operator="arithmetic" k2="-1" k3="1"/>
<feColorMatrix type="matrix" values="0 0 0 0 0 0 0 0 0 0 0 0 0 0 0 0 0 0 0.08 0"/>
<feBlend mode="normal" in2="shape" result="effect1_innerShadow_102_378"/>
</filter>
<linearGradient id="paint0_linear_102_378" x1="21.8008" y1="8.70884" x2="5.01882" y2="25.4908" gradientUnits="userSpaceOnUse">
<stop stop-color="#00A0FF"/>
<stop offset="0.0066" stop-color="#00A1FF"/>
<stop offset="0.2601" stop-color="#00BEFF"/>
<stop offset="0.5122" stop-color="#00D2FF"/>
<stop offset="0.7604" stop-color="#00DFFF"/>
<stop offset="1" stop-color="#00E3FF"/>
</linearGradient>
<linearGradient id="paint1_linear_102_378" x1="33.8335" y1="20.0009" x2="9.63765" y2="20.0009" gradientUnits="userSpaceOnUse">
<stop stop-color="#FFE000"/>
<stop offset="0.4087" stop-color="#FFBD00"/>
<stop offset="0.7754" stop-color="#FFA500"/>
<stop offset="1" stop-color="#FF9C00"/>
</linearGradient>
<linearGradient id="paint2_linear_102_378" x1="24.8281" y1="22.2949" x2="2.06964" y2="45.0534" gradientUnits="userSpaceOnUse">
<stop stop-color="#FF3A44"/>
<stop offset="1" stop-color="#C31162"/>
</linearGradient>
<linearGradient id="paint3_linear_102_378" x1="7.29743" y1="0.176745" x2="17.4597" y2="10.339" gradientUnits="userSpaceOnUse">
<stop stop-color="#32A071"/>
<stop offset="0.0685" stop-color="#2DA771"/>
<stop offset="0.4762" stop-color="#15CF74"/>
<stop offset="0.8009" stop-color="#06E775"/>
<stop offset="1" stop-color="#00F076"/>
</linearGradient>
</defs>
</svg>
